<?xml version="1.0" encoding="UTF-8" standalone="no"?>
<!-- Created with Inkscape (http://www.inkscape.org/) -->

<svg
   xmlns:dc="http://purl.org/dc/elements/1.1/"
   xmlns:cc="http://creativecommons.org/ns#"
   xmlns:rdf="http://www.w3.org/1999/02/22-rdf-syntax-ns#"
   xmlns:svg="http://www.w3.org/2000/svg"
   xmlns="http://www.w3.org/2000/svg"
   xmlns:xlink="http://www.w3.org/1999/xlink"
   xmlns:sodipodi="http://sodipodi.sourceforge.net/DTD/sodipodi-0.dtd"
   xmlns:inkscape="http://www.inkscape.org/namespaces/inkscape"
   width="28"
   height="28"
   id="svg5038"
   version="1.1"
   inkscape:version="0.48.4 r9939"
   sodipodi:docname="checkbox.svg">
  <defs
     id="defs5040">
    <linearGradient
       id="linearGradient3929">
      <stop
         style="stop-color:#b7b7b7;stop-opacity:1;"
         offset="0"
         id="stop3931" />
      <stop
         style="stop-color:#dadada;stop-opacity:1;"
         offset="1"
         id="stop3933" />
    </linearGradient>
    <linearGradient
       id="linearGradient3849">
      <stop
         style="stop-color:#0e0e0e;stop-opacity:1;"
         offset="0"
         id="stop3851" />
      <stop
         style="stop-color:#393939;stop-opacity:1;"
         offset="1"
         id="stop3853" />
    </linearGradient>
    <inkscape:path-effect
       effect="spiro"
       id="path-effect5837"
       is_visible="true" />
    <inkscape:path-effect
       effect="spiro"
       id="path-effect5012"
       is_visible="true" />
    <inkscape:path-effect
       effect="spiro"
       id="path-effect5884"
       is_visible="true" />
    <linearGradient
       y2="1106.5294"
       x2="808"
       y1="1040.7369"
       x1="806.39526"
       gradientTransform="matrix(0.04728153,0,0,0.52063887,144.29163,-314.78125)"
       gradientUnits="userSpaceOnUse"
       id="linearGradient5726"
       xlink:href="#linearGradient85841-7-0"
       inkscape:collect="always" />
    <linearGradient
       inkscape:collect="always"
       id="linearGradient85841-7-0">
      <stop
         style="stop-color:#242424;stop-opacity:1"
         offset="0"
         id="stop85843-4-8" />
      <stop
         id="stop85845-0-5"
         offset="0.63381755"
         style="stop-color:#101010;stop-opacity:1;" />
      <stop
         style="stop-color:#262626;stop-opacity:1"
         offset="1"
         id="stop85847-7-3" />
    </linearGradient>
    <linearGradient
       inkscape:collect="always"
       xlink:href="#linearGradient3849"
       id="linearGradient3008"
       gradientUnits="userSpaceOnUse"
       gradientTransform="translate(0,1)"
       x1="20"
       y1="18"
       x2="20"
       y2="38" />
    <linearGradient
       inkscape:collect="always"
       xlink:href="#linearGradient3929"
       id="linearGradient3935"
       x1="8"
       y1="28"
       x2="32"
       y2="28"
       gradientUnits="userSpaceOnUse"
       gradientTransform="matrix(0,-1,1,0,-8,48)" />
    <linearGradient
       inkscape:collect="always"
       xlink:href="#linearGradient3849"
       id="linearGradient3780"
       gradientUnits="userSpaceOnUse"
       gradientTransform="translate(-8,9)"
       x1="20"
       y1="18"
       x2="20"
       y2="38" />
  </defs>
  <sodipodi:namedview
     id="base"
     pagecolor="#000000"
     bordercolor="#666666"
     borderopacity="1.0"
     inkscape:pageopacity="1"
     inkscape:pageshadow="2"
     inkscape:zoom="2.8284271"
     inkscape:cx="0.69847191"
     inkscape:cy="9.2642786"
     inkscape:current-layer="layer1"
     showgrid="false"
     inkscape:grid-bbox="true"
     inkscape:document-units="px"
     inkscape:window-width="1364"
     inkscape:window-height="699"
     inkscape:window-x="0"
     inkscape:window-y="27"
     inkscape:window-maximized="1"
     inkscape:snap-bbox="true"
     inkscape:bbox-paths="true"
     inkscape:snap-bbox-edge-midpoints="true"
     inkscape:snap-bbox-midpoints="true"
     inkscape:bbox-nodes="true"
     showborder="false">
    <inkscape:grid
       type="xygrid"
       id="grid3072"
       empspacing="5"
       visible="true"
       enabled="true"
       snapvisiblegridlinesonly="true" />
  </sodipodi:namedview>
  <metadata
     id="metadata5043">
    <rdf:RDF>
      <cc:Work
         rdf:about="">
        <dc:format>image/svg+xml</dc:format>
        <dc:type
           rdf:resource="http://purl.org/dc/dcmitype/StillImage" />
        <dc:title></dc:title>
      </cc:Work>
    </rdf:RDF>
  </metadata>
  <g
     id="layer1"
     inkscape:label="Layer 1"
     inkscape:groupmode="layer"
     transform="translate(0,-20)">
    <path
       style="color:#000000;fill:url(#linearGradient3780);fill-opacity:1;fill-rule:nonzero;stroke:none;stroke-width:0.5;marker:none;visibility:visible;display:inline;overflow:visible;enable-background:new"
       d="M 3.2,25 C 3.020988,25 2.850779,25.02877 2.684375,25.06875 1.717815,25.300959 1,26.160211 1,27.2 L 1,44.8 C 1,46.0188 1.9812,47 3.2,47 l 17.6,0 C 22.0188,47 23,46.0188 23,44.8 L 23,27.2 C 23,26.160211 22.282185,25.300959 21.315625,25.06875 21.145002,25.048816 20.976147,25 20.8,25 z"
       id="path4863-7-1"
       inkscape:connector-curvature="0"
       sodipodi:nodetypes="sssssssscss" />
    <path
       style="color:#000000;fill:#a1a1a1;fill-opacity:1;fill-rule:nonzero;stroke:none;stroke-width:0.50000000000000000;marker:none;visibility:visible;display:inline;overflow:visible;enable-background:new"
       d="m 0,44 c 0,2.216 1.784,4 4,4 l 16,0 c 2.216,0 4,-1.784 4,-4 l 0,-16 c 0,-2.216 -1.784,-4 -4,-4 L 4,24 c -2.216,0 -4,1.784 -4,4 z m 2,0 0,-16 c 0,-1.108 0.892,-2 2,-2 l 16,0 c 1.108,0 2,0.892 2,2 l 0,16 c 0,1.108 -0.892,2 -2,2 L 4,46 C 2.892,46 2,45.108 2,44 z"
       id="path4681-0"
       inkscape:connector-curvature="0"
       sodipodi:nodetypes="ssssssssssssssssss" />
    <path
       style="opacity:0.05;color:#000000;fill:#000000;fill-opacity:1;fill-rule:nonzero;stroke:none;stroke-width:0.5;marker:none;visibility:visible;display:inline;overflow:visible;enable-background:new"
       d="m 4,26 c -1.108,0 -2,0.892 -2,2 l 0,2 c 0,-1.108 0.892,-2 2,-2 l 16,0 c 1.108,0 2,0.892 2,2 l 0,-2 c 0,-1.108 -0.892,-2 -2,-2 z"
       id="path4683-8"
       inkscape:connector-curvature="0"
       sodipodi:nodetypes="sscsscsss" />
  </g>
</svg>
